<svg width="114" height="111" viewBox="0 0 114 111" fill="none" xmlns="http://www.w3.org/2000/svg">
  <path
    d="M48.0635 99.2049C48.5963 99.2049 49.0563 99.5964 49.1318 100.124C49.2318 100.824 49.3311 101.525 49.4316 102.228C49.6474 102.678 49.7988 103.166 49.8701 103.683C50.146 105.686 49.8708 106.422 48.9707 108.114C48.7845 108.464 48.5397 108.781 48.2471 109.049C47.2656 109.946 46.9414 110.146 46.001 110.191C45.4495 110.218 45.0003 109.765 45 109.213C45 108.661 44.56 108.205 44.0078 108.205C43.4556 108.205 43.0001 107.757 43 107.205V107.043C43 106.543 42.6797 106.098 42.2051 105.94C41.9706 105.862 41.7358 105.783 41.5 105.705C40.6043 105.406 40.0001 104.568 40 103.624V102.839C40 101.3 41.0665 99.9501 42.585 99.701C43.2114 99.5982 43.828 99.5128 44.4473 99.4432C45.3771 99.3386 46.2787 99.5071 47.0732 99.8836C47.2277 99.4861 47.6104 99.2049 48.0635 99.2049ZM44.8711 16.0916C48.9183 8.62082 56.0928 9.15089 63.4893 9.87677C65.6472 10.0886 67.5344 11.4522 68.3887 13.4451C68.6746 14.1123 68.962 14.7826 69.251 15.4568C69.7007 16.5062 70.7586 17.1627 71.8984 17.0994L74.375 17.0174C75.4626 16.9708 75.5795 16.966 76.4766 16.9276C76.7153 16.9173 76.9517 16.9277 77.1885 16.9598C78.3378 17.1154 79.3683 17.7575 80.0117 18.7225L80.2109 19.0213C80.7258 19.7935 81.4509 20.4056 82.3076 20.7625C83.0492 21.0714 83.7952 21.3702 84.5449 21.659C85.5082 22.03 86.4418 22.4858 87.29 23.074C89.0169 24.2715 89.1005 24.599 89.5898 26.5174C89.8216 28.3087 90.0507 30.1005 90.2773 31.8924C90.7708 34.3518 90.7709 34.352 92.9258 35.4119C93.0517 35.4601 93.1776 35.5083 93.3037 35.5565C94.4289 35.9866 95.506 36.5506 96.4424 37.3084C96.8697 37.6542 97.1758 37.9387 97.5 38.3016C98.5532 39.4807 99.0723 41.0448 99.1514 42.6238C99.1726 43.0485 99.1839 43.4064 99.1865 43.7479C99.2031 45.896 97.8472 47.7813 95.9258 48.742C94.1104 49.6497 92.6983 51.411 92.7715 53.4393C92.8463 55.5132 93.5608 56.9387 95.4062 59.3533C96.9376 60.9921 98.5059 62.5858 100.09 64.1736C103.004 67.3073 104.344 69.244 104.344 73.619C104.3 74.0734 104.257 74.5278 104.213 74.9842C104.092 76.2433 103.034 77.2048 101.77 77.2049H101.581C100.637 77.2049 99.7986 76.6006 99.5 75.7049C99.422 75.4708 99.3433 75.2359 99.2646 74.9998C99.1064 74.5252 98.6692 74.2049 98.1689 74.2049C97.5273 74.2048 97.0002 73.6845 97 73.0428V71.493C97 69.7884 95.4464 68.5077 93.7793 68.8631C93.5404 68.9141 93.3012 68.9658 93.0625 69.0174C92.4307 69.1478 91.7984 69.2776 91.1523 69.4109C90.9494 69.4528 90.7503 69.5125 90.5576 69.5887C90.517 69.6048 90.4762 69.6214 90.4355 69.6375C89.5256 69.9973 88.8251 70.7298 88.5156 71.658C88.1927 72.6268 87.4428 73.4243 86.4688 73.7313C85.6634 73.9851 85.1121 74.0858 83.4375 74.3924L80.9336 74.8729C79.7434 75.0772 78.7156 75.9074 78.415 77.077C78.3943 77.1576 78.3747 77.2384 78.3555 77.3211C78.0838 78.4917 78.5058 79.7106 79.3555 80.5604L79.8311 81.0359C80.5669 81.772 80.9212 83.0147 80.7109 84.034C80.4134 85.4759 78.9733 86.2226 77.5332 85.9168C77.2571 85.8582 76.965 85.783 76.6055 85.6815C75.565 85.3876 74.6727 84.7087 74.0889 83.7986C73.3609 82.6639 73.0955 82.1947 72.2314 80.6248C72.0829 80.355 71.8371 80.1499 71.5449 80.0526L70.625 79.7459C69.9896 79.5341 69.3996 80.1683 69.6562 80.7869C72.263 87.6781 73.5384 94.9375 70.9805 102.033C70.9253 102.155 70.8697 102.278 70.8145 102.4C70.3184 103.499 69.2414 104.205 68.0361 104.205C67.7205 104.205 67.4156 104.156 67.1279 104.067C66.9386 104.154 66.7285 104.205 66.5059 104.205C65.68 104.205 64.9906 103.541 64.9805 102.716C64.9631 101.295 64.9494 99.8751 64.9375 98.4549L64.9023 95.2205C64.9417 94.0065 65.0234 92.9065 65.1787 91.826C65.2421 90.561 65.3204 89.2962 65.418 88.0301C65.6637 84.8426 63.6948 81.7904 60.5049 82.0008C59.1144 82.0925 57.4599 82.7568 56.5312 83.7957C56.1147 84.2618 55.8124 84.6283 55.4834 85.0701C54.4914 86.4021 53.0746 87.3629 51.4375 87.6424C51.3178 87.67 51.1979 87.6978 51.0781 87.7254C49.7474 88.0325 48.5785 88.8476 47.877 90.0193C47.3893 90.8339 47.1149 91.3691 46.791 92.1531C46.3128 93.3108 45.098 93.9794 43.8828 93.6756C43.8114 93.6577 43.7415 93.6359 43.6729 93.6121C43.6192 93.6032 43.5646 93.5963 43.5107 93.5828C42.6388 93.3648 42.0002 92.5744 42 91.6756V86.7654C42 85.1297 40.4807 83.9648 39.0176 84.6961C38.4956 84.9571 37.8965 85.5164 37.7119 86.0701C37.6646 86.212 37.6223 86.3371 37.583 86.4549C37.2221 87.537 36.309 88.3434 35.1904 88.5672C35.0348 88.5983 34.8887 88.6268 34.7471 88.6551C33.2298 88.9583 31.7576 87.9937 31.4541 86.4764C31.1922 85.1667 30.0387 84.205 28.7031 84.2049H28.6338C27.6201 84.205 26.6635 84.7296 26.2246 85.6434C25.8649 86.3924 25.5725 87.1406 25.3291 87.8953C24.9995 89.7081 24.6684 91.5301 24.333 93.3748C24.1404 94.4342 23.232 95.2049 22.1553 95.2049C22.1442 95.2049 22.1331 95.2031 22.1221 95.2029C22.1114 95.2031 22.1006 95.2049 22.0898 95.2049C20.9307 95.2049 19.9546 94.2887 19.9688 93.1297C19.9715 92.903 19.9773 92.6787 19.9844 92.4568C19.9879 92.3459 19.9925 92.2356 19.9971 92.1258C20.0021 92.0057 20.0073 91.8863 20.0137 91.7674C20.0186 91.6746 20.0255 91.5822 20.0312 91.4901C20.0394 91.3585 20.0479 91.2277 20.0576 91.0975C20.0633 91.0214 20.0699 90.9456 20.0762 90.8699C20.0863 90.7471 20.0959 90.6246 20.1074 90.5027C20.1163 90.4097 20.1261 90.317 20.1357 90.2244C20.1475 90.1122 20.1589 90.0001 20.1719 89.8885C20.1824 89.7978 20.1947 89.7074 20.2061 89.617C20.2231 89.4809 20.2408 89.3452 20.2598 89.2098C20.2676 89.1541 20.2751 89.0984 20.2832 89.0428C20.3034 88.9042 20.3246 88.7659 20.3467 88.6277C20.3596 88.547 20.3731 88.4663 20.3867 88.3856C20.4133 88.2279 20.4406 88.0704 20.4697 87.9129C20.4774 87.8715 20.4853 87.8302 20.4932 87.7889C20.5205 87.6444 20.5487 87.4999 20.5781 87.3553C20.5893 87.3003 20.6008 87.2453 20.6123 87.1902C20.6461 87.0287 20.6813 86.867 20.7178 86.7049C20.7272 86.6629 20.7365 86.6209 20.7461 86.5789C20.7749 86.4528 20.8055 86.3267 20.8359 86.2C20.851 86.1374 20.8644 86.0743 20.8799 86.0115L20.9082 85.8983C20.9965 85.5445 21.0916 85.188 21.1924 84.827C21.2036 84.7867 21.2142 84.7462 21.2256 84.7059C21.2565 84.5962 21.2892 84.4864 21.3213 84.3758C21.3325 84.3372 21.3431 84.2983 21.3545 84.2596C21.4231 83.4587 21.492 82.6524 21.5625 81.8299L21.8789 78.244C21.9194 77.9136 21.9541 77.6198 21.9844 77.3563C21.7352 75.8291 20.8706 74.5027 19.3125 74.3055C17.9996 74.1394 16.4709 74.733 15.5352 75.6688C15.193 76.0109 14.8488 76.3561 14.5 76.7049L13.6279 77.577C13.503 77.7019 13.3714 77.8198 13.2354 77.9315C13.1595 78.0313 13.0773 78.1275 12.9873 78.2176C12.4019 78.803 11.5794 79.1031 10.7598 79.0213C10.4127 79.0627 10.0591 79.0618 9.70508 79.0125C9.40134 78.9702 9.13965 78.9187 8.86719 78.8465C8.2936 78.6945 7.80478 78.367 7.4248 77.9344C7.04241 77.5545 6.77102 77.0617 6.66113 76.5125C6.51346 75.7741 6.36574 75.0316 6.21582 74.282C6.12687 73.8365 6.37646 73.4158 6.77051 73.2645C6.99779 72.9868 7.30542 72.7698 7.67871 72.6453C8.44226 72.3908 9.06326 71.6959 9.16309 70.8973C9.25639 70.1509 9.35054 69.4035 9.44434 68.6531C9.77036 66.045 8.2638 63.5537 5.80273 62.6307C4.98045 62.3223 4.154 62.0123 3.32129 61.7C2.52692 61.4021 2.00017 60.6538 2 59.8055C2 58.8714 2.63582 58.0457 3.54199 57.8192C4.96098 57.4644 6.38486 57.1089 7.8252 56.7488C8.94127 56.4696 9.53796 55.2798 9.02344 54.2508C8.98362 54.1711 8.9235 54.0358 8.89648 53.951C7.89612 50.8123 8.12147 48.8239 8.86426 45.7547C8.95122 45.3954 9.15855 45.0464 9.41992 44.785C9.80419 44.4007 10.0001 43.8987 9.99414 43.3553C9.9675 40.9383 9.86472 38.5289 9.75781 36.1131C9.74774 35.8854 9.75358 35.6602 9.77637 35.4334C9.91799 34.0246 10.6668 32.7221 11.874 31.9822C13.2496 31.1393 13.9436 30.9566 16.5625 30.2674C19.2305 29.73 19.9628 29.5816 20.835 28.2742C21.9821 26.0567 22.5384 24.1956 22.9277 21.6922C22.9711 21.4132 23.206 21.205 23.4883 21.2049C23.5154 21.2049 23.5421 21.208 23.5684 21.2117C23.587 21.1469 23.6065 21.0823 23.625 21.0174L24.4141 18.2869C24.779 16.9901 25.7687 15.9231 27.0791 15.6102C27.5336 15.5017 27.9365 15.4331 28.4395 15.3797C30.0784 15.2057 31.7237 15.7731 32.9521 16.8719C33.9782 17.7897 34.4665 18.3733 36 20.2049C37.5367 21.7416 38.4825 22.3229 39.957 22.741C41.1031 23.066 42.2696 22.3419 42.625 21.2049L44 18.2049L44.8711 16.0916ZM8.98926 85.077C10.7796 85.0035 11.9404 86.7331 11.2158 88.3719C10.7718 89.376 10.1443 90.259 9.27637 91.368C8.97036 91.759 8.61528 92.1138 8.22656 92.4227C6.05333 94.1496 5.76898 94.2247 2.97266 94.4901C2.78334 94.508 2.59124 94.5062 2.40234 94.4842C2.33193 94.476 2.26562 94.468 2.20312 94.4608C0.946847 94.3146 0 93.2656 0 92.0008C0.000179989 90.9356 0.677697 89.9725 1.68555 89.6277C1.91373 89.5497 2.14347 89.4716 2.375 89.3924C4.71425 88.5588 5.17081 88.396 6.15625 86.7205C6.70394 85.7894 7.90987 85.1213 8.98926 85.077ZM107.625 82.0799C108.981 82.1512 110.099 83.1577 110.322 84.4901C110.721 83.9544 111.433 83.6826 112.136 83.9168C112.667 84.0941 113.082 84.5375 113.214 85.0818C113.925 88.008 114.15 89.1173 113.861 90.1346C113.469 91.5158 112.264 92.5664 110.892 92.9901C109.554 93.4031 108.291 93.378 106.671 93.2576C106.255 93.2265 105.889 92.9817 105.702 92.6082C105.462 92.1278 105.576 91.5788 105.919 91.2293C105.501 91.1582 105.184 91.0562 104.868 90.8699C103.471 90.0456 102.813 88.3267 102.812 86.7049C102.812 85.0831 103.465 83.353 104.872 82.5457C105.508 82.1809 106.155 82.1499 107.625 82.0799ZM108.625 43.1424L111.102 43.1697C112.217 43.1904 113.18 43.9667 113.406 45.0594C113.485 45.4407 113.562 45.8226 113.636 46.2049C113.667 46.3644 113.687 46.5274 113.697 46.6902C113.798 47.1915 113.898 47.696 114 48.2049L113.688 47.2674C113.602 48.1734 113.164 48.9916 112.279 49.242C111.18 49.5531 109.983 49.381 108.562 49.3924L106.129 49.4354C104.357 49.2435 104.06 49.2113 102.856 48.0526C102.301 47.5179 102 46.7813 102 46.0106C102 44.9099 102.609 43.8496 103.662 43.5291C105.242 43.0484 106.614 43.1137 108.625 43.1424ZM4.29004 22.2049C5.26206 22.2049 6.10169 22.9194 6.23926 23.8817C6.35737 24.7085 6.47652 25.5376 6.5957 26.3719C6.78891 27.7246 5.56392 28.8458 4.23828 28.5145C3.49526 28.3287 2.91906 27.7162 2.79297 26.9608C2.65573 26.1373 2.51758 25.3114 2.37891 24.4793C2.18049 23.2888 3.0832 22.2052 4.29004 22.2049ZM30.2266 0.464661C31.577 -0.141909 33.1344 -0.0896479 34.5752 0.250793C34.6916 0.278296 34.8051 0.307168 34.916 0.337708C38.1051 1.21561 39.6444 4.97882 39.2305 8.26056C39.1982 8.51659 39.1552 8.77187 39.1006 9.02716C38.6354 11.2017 36.8874 13.0422 34.6963 13.4217C34.5175 13.4526 34.3376 13.4758 34.1553 13.491C32.0824 13.6642 30.0501 12.6329 28.7422 11.0154C27.394 9.34788 26.9261 7.05354 27.2666 4.93634C27.5938 2.90187 28.3375 1.31317 30.2266 0.464661Z"
    fill="#4DE1EE" />
</svg>